<?xml version="1.0" encoding="UTF-8" standalone="no"?>
<svg
   xmlns:dc="http://purl.org/dc/elements/1.1/"
   xmlns:cc="http://creativecommons.org/ns#"
   xmlns:rdf="http://www.w3.org/1999/02/22-rdf-syntax-ns#"
   xmlns:svg="http://www.w3.org/2000/svg"
   xmlns="http://www.w3.org/2000/svg"
   xmlns:xlink="http://www.w3.org/1999/xlink"
   xmlns:sodipodi="http://sodipodi.sourceforge.net/DTD/sodipodi-0.dtd"
   xmlns:inkscape="http://www.inkscape.org/namespaces/inkscape"
   width="600"
   height="480"
   viewBox="0 0 600 480"
   version="1.1"
   id="svg440"
   sodipodi:docname="img_doxygen_corwalk_3d.svg"
   inkscape:version="0.92.1 unknown">
  <metadata
     id="metadata446">
    <rdf:RDF>
      <cc:Work
         rdf:about="">
        <dc:format>image/svg+xml</dc:format>
        <dc:type
           rdf:resource="http://purl.org/dc/dcmitype/StillImage" />
        <dc:title>Gnuplot</dc:title>
      </cc:Work>
    </rdf:RDF>
  </metadata>
  <defs
     id="defs444" />
  <sodipodi:namedview
     pagecolor="#ffffff"
     bordercolor="#666666"
     borderopacity="1"
     objecttolerance="10"
     gridtolerance="10"
     guidetolerance="10"
     inkscape:pageopacity="0"
     inkscape:pageshadow="2"
     inkscape:window-width="1440"
     inkscape:window-height="847"
     id="namedview442"
     showgrid="false"
     inkscape:zoom="1.3104167"
     inkscape:cx="286.64547"
     inkscape:cy="240"
     inkscape:window-x="0"
     inkscape:window-y="29"
     inkscape:window-maximized="1"
     inkscape:current-layer="g410" />
  <title
     id="title2">Gnuplot</title>
  <desc
     id="desc4">Produced by GNUPLOT 4.6 patchlevel 4 </desc>
  <g
     id="gnuplot_canvas">
    <rect
       x="0"
       y="0"
       width="600"
       height="480"
       fill="none"
       id="rect6" />
    <defs
       id="defs22">
      <circle
         id="gpDot"
         r="0.5"
         stroke-width="0.5" />
      <path
         id="gpPt0"
         stroke-width="0.222"
         stroke="currentColor"
         d="M-1,0 h2 M0,-1 v2" />
      <path
         id="gpPt1"
         stroke-width="0.222"
         stroke="currentColor"
         d="M-1,-1 L1,1 M1,-1 L-1,1" />
      <path
         id="gpPt2"
         stroke-width="0.222"
         stroke="currentColor"
         d="M-1,0 L1,0 M0,-1 L0,1 M-1,-1 L1,1 M-1,1 L1,-1" />
      <rect
         id="gpPt3"
         stroke-width="0.222"
         stroke="currentColor"
         x="-1"
         y="-1"
         width="2"
         height="2" />
      <rect
         id="gpPt4"
         stroke-width="0.222"
         stroke="currentColor"
         fill="currentColor"
         x="-1"
         y="-1"
         width="2"
         height="2" />
      <circle
         id="gpPt5"
         stroke-width="0.222"
         stroke="currentColor"
         cx="0"
         cy="0"
         r="1" />
      <use
         xlink:href="#gpPt5"
         id="gpPt6"
         fill="currentColor"
         stroke="none" />
      <path
         id="gpPt7"
         stroke-width="0.222"
         stroke="currentColor"
         d="M0,-1.33 L-1.33,0.67 L1.33,0.67 z" />
      <use
         xlink:href="#gpPt7"
         id="gpPt8"
         fill="currentColor"
         stroke="none" />
      <use
         xlink:href="#gpPt7"
         id="gpPt9"
         stroke="currentColor"
         transform="rotate(180)" />
      <use
         xlink:href="#gpPt9"
         id="gpPt10"
         fill="currentColor"
         stroke="none" />
      <use
         xlink:href="#gpPt3"
         id="gpPt11"
         stroke="currentColor"
         transform="rotate(45)" />
      <use
         xlink:href="#gpPt11"
         id="gpPt12"
         fill="currentColor"
         stroke="none" />
    </defs>
    <g
       style="fill:none; color:white; stroke:black; stroke-width:1.00; stroke-linecap:butt; stroke-linejoin:miter"
       id="g24" />
    <g
       style="fill:none; color:black; stroke:currentColor; stroke-width:1.00; stroke-linecap:butt; stroke-linejoin:miter"
       id="g28">
      <path
         stroke="black"
         d="M85.9,356.8 L242.7,260.3 M514.1,316.0 L242.7,260.3 M85.9,356.8 L85.9,164.0  h0.01"
         id="path26" />
    </g>
    <g
       style="fill:none; color:gray; stroke:currentColor; stroke-width:1.00; stroke-linecap:butt; stroke-linejoin:miter"
       id="g32">
      <path
         stroke="gray"
         stroke-dasharray=" 2,4"
         class="gridline"
         d="M85.9,356.8 L242.7,260.3  h0.01"
         id="path30" />
    </g>
    <g
       style="fill:none; color:black; stroke:currentColor; stroke-width:1.00; stroke-linecap:butt; stroke-linejoin:miter"
       id="g42">
      <path
         stroke="black"
         d="M85.9,356.8 L92.2,352.9  h0.01"
         id="path34" />
      <path
         stroke="black"
         d="M242.7,260.3 L236.3,264.2  h0.01"
         id="path40" />
    </g>
    <g
       style="fill:none; color:gray; stroke:currentColor; stroke-width:1.00; stroke-linecap:butt; stroke-linejoin:miter"
       id="g46">
      <path
         stroke="gray"
         stroke-dasharray=" 2,4"
         class="gridline"
         d="M113.0,362.3 L269.8,265.9  h0.01"
         id="path44" />
    </g>
    <g
       style="fill:none; color:black; stroke:currentColor; stroke-width:1.00; stroke-linecap:butt; stroke-linejoin:miter"
       id="g56">
      <path
         stroke="black"
         d="M113.0,362.3 L119.4,358.4  h0.01"
         id="path48" />
      <path
         stroke="black"
         d="M269.8,265.9 L263.5,269.8  h0.01"
         id="path54" />
    </g>
    <g
       style="fill:none; color:gray; stroke:currentColor; stroke-width:1.00; stroke-linecap:butt; stroke-linejoin:miter"
       id="g60">
      <path
         stroke="gray"
         stroke-dasharray=" 2,4"
         class="gridline"
         d="M140.2,367.9 L297.0,271.5  h0.01"
         id="path58" />
    </g>
    <g
       style="fill:none; color:black; stroke:currentColor; stroke-width:1.00; stroke-linecap:butt; stroke-linejoin:miter"
       id="g70">
      <path
         stroke="black"
         d="M140.2,367.9 L146.5,364.0  h0.01"
         id="path62" />
      <path
         stroke="black"
         d="M297.0,271.5 L290.6,275.4  h0.01"
         id="path68" />
    </g>
    <g
       style="fill:none; color:gray; stroke:currentColor; stroke-width:1.00; stroke-linecap:butt; stroke-linejoin:miter"
       id="g74">
      <path
         stroke="gray"
         stroke-dasharray=" 2,4"
         class="gridline"
         d="M167.3,373.5 L324.0,277.0  h0.01"
         id="path72" />
    </g>
    <g
       style="fill:none; color:black; stroke:currentColor; stroke-width:1.00; stroke-linecap:butt; stroke-linejoin:miter"
       id="g84">
      <path
         stroke="black"
         d="M167.3,373.5 L173.7,369.6  h0.01"
         id="path76" />
      <path
         stroke="black"
         d="M324.0,277.0 L317.7,280.9  h0.01"
         id="path82" />
    </g>
    <g
       style="fill:none; color:gray; stroke:currentColor; stroke-width:1.00; stroke-linecap:butt; stroke-linejoin:miter"
       id="g88">
      <path
         stroke="gray"
         stroke-dasharray=" 2,4"
         class="gridline"
         d="M194.5,379.0 L351.2,282.6  h0.01"
         id="path86" />
    </g>
    <g
       style="fill:none; color:black; stroke:currentColor; stroke-width:1.00; stroke-linecap:butt; stroke-linejoin:miter"
       id="g98">
      <path
         stroke="black"
         d="M194.5,379.0 L200.8,375.1  h0.01"
         id="path90" />
      <path
         stroke="black"
         d="M351.2,282.6 L344.9,286.5  h0.01"
         id="path96" />
    </g>
    <g
       style="fill:none; color:gray; stroke:currentColor; stroke-width:1.00; stroke-linecap:butt; stroke-linejoin:miter"
       id="g102">
      <path
         stroke="gray"
         stroke-dasharray=" 2,4"
         class="gridline"
         d="M221.7,384.6 L378.3,288.2  h0.01"
         id="path100" />
    </g>
    <g
       style="fill:none; color:black; stroke:currentColor; stroke-width:1.00; stroke-linecap:butt; stroke-linejoin:miter"
       id="g112">
      <path
         stroke="black"
         d="M221.7,384.6 L228.0,380.7  h0.01"
         id="path104" />
      <g
         transform="translate(215.8,396.9)"
         style="stroke:none; fill:black; font-family:Arial; font-size:12.00pt; text-anchor:middle"
         id="g108" />
      <path
         stroke="black"
         d="M378.3,288.2 L372.0,292.1  h0.01"
         id="path110" />
    </g>
    <g
       style="fill:none; color:gray; stroke:currentColor; stroke-width:1.00; stroke-linecap:butt; stroke-linejoin:miter"
       id="g116">
      <path
         stroke="gray"
         stroke-dasharray=" 2,4"
         class="gridline"
         d="M248.8,390.2 L405.5,293.7  h0.01"
         id="path114" />
    </g>
    <g
       style="fill:none; color:black; stroke:currentColor; stroke-width:1.00; stroke-linecap:butt; stroke-linejoin:miter"
       id="g126">
      <path
         stroke="black"
         d="M248.8,390.2 L255.1,386.3  h0.01"
         id="path118" />
      <path
         stroke="black"
         d="M405.5,293.7 L399.2,297.6  h0.01"
         id="path124" />
    </g>
    <g
       style="fill:none; color:gray; stroke:currentColor; stroke-width:1.00; stroke-linecap:butt; stroke-linejoin:miter"
       id="g130">
      <path
         stroke="gray"
         stroke-dasharray=" 2,4"
         class="gridline"
         d="M276.0,395.7 L432.7,299.3  h0.01"
         id="path128" />
    </g>
    <g
       style="fill:none; color:black; stroke:currentColor; stroke-width:1.00; stroke-linecap:butt; stroke-linejoin:miter"
       id="g140">
      <path
         stroke="black"
         d="M276.0,395.7 L282.3,391.8  h0.01"
         id="path132" />
      <path
         stroke="black"
         d="M432.7,299.3 L426.3,303.2  h0.01"
         id="path138" />
    </g>
    <g
       style="fill:none; color:gray; stroke:currentColor; stroke-width:1.00; stroke-linecap:butt; stroke-linejoin:miter"
       id="g144">
      <path
         stroke="gray"
         stroke-dasharray=" 2,4"
         class="gridline"
         d="M303.0,401.3 L459.8,304.9  h0.01"
         id="path142" />
    </g>
    <g
       style="fill:none; color:black; stroke:currentColor; stroke-width:1.00; stroke-linecap:butt; stroke-linejoin:miter"
       id="g154">
      <path
         stroke="black"
         d="M303.0,401.3 L309.4,397.4  h0.01"
         id="path146" />
      <path
         stroke="black"
         d="M459.8,304.9 L453.5,308.8  h0.01"
         id="path152" />
    </g>
    <g
       style="fill:none; color:gray; stroke:currentColor; stroke-width:1.00; stroke-linecap:butt; stroke-linejoin:miter"
       id="g158">
      <path
         stroke="gray"
         stroke-dasharray=" 2,4"
         class="gridline"
         d="M330.2,406.9 L487.0,310.4  h0.01"
         id="path156" />
    </g>
    <g
       style="fill:none; color:black; stroke:currentColor; stroke-width:1.00; stroke-linecap:butt; stroke-linejoin:miter"
       id="g168">
      <path
         stroke="black"
         d="M330.2,406.9 L336.5,403.0  h0.01"
         id="path160" />
      <path
         stroke="black"
         d="M487.0,310.4 L480.6,314.3  h0.01"
         id="path166" />
    </g>
    <g
       style="fill:none; color:gray; stroke:currentColor; stroke-width:1.00; stroke-linecap:butt; stroke-linejoin:miter"
       id="g172">
      <path
         stroke="gray"
         stroke-dasharray=" 2,4"
         class="gridline"
         d="M357.3,412.4 L514.1,316.0  h0.01"
         id="path170" />
    </g>
    <g
       style="fill:none; color:black; stroke:currentColor; stroke-width:1.00; stroke-linecap:butt; stroke-linejoin:miter"
       id="g182">
      <path
         stroke="black"
         d="M357.3,412.4 L363.7,408.5  h0.01"
         id="path174" />
      <path
         stroke="black"
         d="M514.1,316.0 L507.8,319.9  h0.01"
         id="path180" />
    </g>
    <g
       style="fill:none; color:gray; stroke:currentColor; stroke-width:1.00; stroke-linecap:butt; stroke-linejoin:miter"
       id="g186">
      <path
         stroke="gray"
         stroke-dasharray=" 2,4"
         class="gridline"
         d="M357.3,412.4 L85.9,356.8  h0.01"
         id="path184" />
    </g>
    <g
       style="fill:none; color:black; stroke:currentColor; stroke-width:1.00; stroke-linecap:butt; stroke-linejoin:miter"
       id="g196">
      <path
         stroke="black"
         d="M357.3,412.4 L349.5,410.8  h0.01"
         id="path188" />
      <path
         stroke="black"
         d="M85.9,356.8 L93.7,358.4  h0.01"
         id="path194" />
    </g>
    <g
       style="fill:none; color:gray; stroke:currentColor; stroke-width:1.00; stroke-linecap:butt; stroke-linejoin:miter"
       id="g200">
      <path
         stroke="gray"
         stroke-dasharray=" 2,4"
         class="gridline"
         d="M371.6,403.7 L100.1,348.0  h0.01"
         id="path198" />
    </g>
    <g
       style="fill:none; color:black; stroke:currentColor; stroke-width:1.00; stroke-linecap:butt; stroke-linejoin:miter"
       id="g210">
      <path
         stroke="black"
         d="M371.6,403.7 L363.8,402.1  h0.01"
         id="path202" />
      <path
         stroke="black"
         d="M100.1,348.0 L107.9,349.6  h0.01"
         id="path208" />
    </g>
    <g
       style="fill:none; color:gray; stroke:currentColor; stroke-width:1.00; stroke-linecap:butt; stroke-linejoin:miter"
       id="g214">
      <path
         stroke="gray"
         stroke-dasharray=" 2,4"
         class="gridline"
         d="M385.9,394.9 L114.4,339.2  h0.01"
         id="path212" />
    </g>
    <g
       style="fill:none; color:black; stroke:currentColor; stroke-width:1.00; stroke-linecap:butt; stroke-linejoin:miter"
       id="g224">
      <path
         stroke="black"
         d="M385.9,394.9 L378.1,393.3  h0.01"
         id="path216" />
      <path
         stroke="black"
         d="M114.4,339.2 L122.2,340.8  h0.01"
         id="path222" />
    </g>
    <g
       style="fill:none; color:gray; stroke:currentColor; stroke-width:1.00; stroke-linecap:butt; stroke-linejoin:miter"
       id="g228">
      <path
         stroke="gray"
         stroke-dasharray=" 2,4"
         class="gridline"
         d="M400.1,386.1 L128.6,330.5  h0.01"
         id="path226" />
    </g>
    <g
       style="fill:none; color:black; stroke:currentColor; stroke-width:1.00; stroke-linecap:butt; stroke-linejoin:miter"
       id="g238">
      <path
         stroke="black"
         d="M400.1,386.1 L392.3,384.5  h0.01"
         id="path230" />
      <path
         stroke="black"
         d="M128.6,330.5 L136.4,332.1  h0.01"
         id="path236" />
    </g>
    <g
       style="fill:none; color:gray; stroke:currentColor; stroke-width:1.00; stroke-linecap:butt; stroke-linejoin:miter"
       id="g242">
      <path
         stroke="gray"
         stroke-dasharray=" 2,4"
         class="gridline"
         d="M414.4,377.4 L142.9,321.7  h0.01"
         id="path240" />
    </g>
    <g
       style="fill:none; color:black; stroke:currentColor; stroke-width:1.00; stroke-linecap:butt; stroke-linejoin:miter"
       id="g252">
      <path
         stroke="black"
         d="M414.4,377.4 L406.6,375.8  h0.01"
         id="path244" />
      <path
         stroke="black"
         d="M142.9,321.7 L150.7,323.3  h0.01"
         id="path250" />
    </g>
    <g
       style="fill:none; color:gray; stroke:currentColor; stroke-width:1.00; stroke-linecap:butt; stroke-linejoin:miter"
       id="g256">
      <path
         stroke="gray"
         stroke-dasharray=" 2,4"
         class="gridline"
         d="M428.6,368.6 L157.1,312.9  h0.01"
         id="path254" />
    </g>
    <g
       style="fill:none; color:black; stroke:currentColor; stroke-width:1.00; stroke-linecap:butt; stroke-linejoin:miter"
       id="g266">
      <path
         stroke="black"
         d="M428.6,368.6 L420.8,367.0  h0.01"
         id="path258" />
      <path
         stroke="black"
         d="M157.1,312.9 L164.9,314.5  h0.01"
         id="path264" />
    </g>
    <g
       style="fill:none; color:gray; stroke:currentColor; stroke-width:1.00; stroke-linecap:butt; stroke-linejoin:miter"
       id="g270">
      <path
         stroke="gray"
         stroke-dasharray=" 2,4"
         class="gridline"
         d="M442.9,359.8 L171.4,304.2  h0.01"
         id="path268" />
    </g>
    <g
       style="fill:none; color:black; stroke:currentColor; stroke-width:1.00; stroke-linecap:butt; stroke-linejoin:miter"
       id="g280">
      <path
         stroke="black"
         d="M442.9,359.8 L435.1,358.2  h0.01"
         id="path272" />
      <path
         stroke="black"
         d="M171.4,304.2 L179.2,305.8  h0.01"
         id="path278" />
    </g>
    <g
       style="fill:none; color:gray; stroke:currentColor; stroke-width:1.00; stroke-linecap:butt; stroke-linejoin:miter"
       id="g284">
      <path
         stroke="gray"
         stroke-dasharray=" 2,4"
         class="gridline"
         d="M457.1,351.1 L185.6,295.4  h0.01"
         id="path282" />
    </g>
    <g
       style="fill:none; color:black; stroke:currentColor; stroke-width:1.00; stroke-linecap:butt; stroke-linejoin:miter"
       id="g294">
      <path
         stroke="black"
         d="M457.1,351.1 L449.3,349.5  h0.01"
         id="path286" />
      <path
         stroke="black"
         d="M185.6,295.4 L193.4,297.0  h0.01"
         id="path292" />
    </g>
    <g
       style="fill:none; color:gray; stroke:currentColor; stroke-width:1.00; stroke-linecap:butt; stroke-linejoin:miter"
       id="g298">
      <path
         stroke="gray"
         stroke-dasharray=" 2,4"
         class="gridline"
         d="M471.4,342.3 L199.9,286.6  h0.01"
         id="path296" />
    </g>
    <g
       style="fill:none; color:black; stroke:currentColor; stroke-width:1.00; stroke-linecap:butt; stroke-linejoin:miter"
       id="g308">
      <path
         stroke="black"
         d="M471.4,342.3 L463.6,340.7  h0.01"
         id="path300" />
      <path
         stroke="black"
         d="M199.9,286.6 L207.7,288.2  h0.01"
         id="path306" />
    </g>
    <g
       style="fill:none; color:gray; stroke:currentColor; stroke-width:1.00; stroke-linecap:butt; stroke-linejoin:miter"
       id="g312">
      <path
         stroke="gray"
         stroke-dasharray=" 2,4"
         class="gridline"
         d="M485.6,333.5 L214.1,277.9  h0.01"
         id="path310" />
    </g>
    <g
       style="fill:none; color:black; stroke:currentColor; stroke-width:1.00; stroke-linecap:butt; stroke-linejoin:miter"
       id="g322">
      <path
         stroke="black"
         d="M485.6,333.5 L477.8,331.9  h0.01"
         id="path314" />
      <path
         stroke="black"
         d="M214.1,277.9 L221.9,279.5  h0.01"
         id="path320" />
    </g>
    <g
       style="fill:none; color:gray; stroke:currentColor; stroke-width:1.00; stroke-linecap:butt; stroke-linejoin:miter"
       id="g326">
      <path
         stroke="gray"
         stroke-dasharray=" 2,4"
         class="gridline"
         d="M499.9,324.8 L228.4,269.1  h0.01"
         id="path324" />
    </g>
    <g
       style="fill:none; color:black; stroke:currentColor; stroke-width:1.00; stroke-linecap:butt; stroke-linejoin:miter"
       id="g336">
      <path
         stroke="black"
         d="M499.9,324.8 L492.1,323.2  h0.01"
         id="path328" />
      <path
         stroke="black"
         d="M228.4,269.1 L236.2,270.7  h0.01"
         id="path334" />
    </g>
    <g
       style="fill:none; color:gray; stroke:currentColor; stroke-width:1.00; stroke-linecap:butt; stroke-linejoin:miter"
       id="g340">
      <path
         stroke="gray"
         stroke-dasharray=" 2,4"
         class="gridline"
         d="M514.1,316.0 L242.7,260.3  h0.01"
         id="path338" />
    </g>
    <g
       style="fill:none; color:black; stroke:currentColor; stroke-width:1.00; stroke-linecap:butt; stroke-linejoin:miter"
       id="g410">
      <path
         stroke="black"
         d="M514.1,316.0 L506.3,314.4  h0.01"
         id="path342" />
      <path
         stroke="black"
         d="M242.7,260.3 L250.5,261.9 M85.9,292.5 L94.9,292.5  h0.01"
         id="path348" />
      <g
         transform="translate(67.9,297.0)"
         style="stroke:none; fill:black; font-family:Arial; font-size:12.00pt; text-anchor:end"
         id="g352" />
      <path
         stroke="black"
         d="M85.9,276.4 L94.9,276.4  h0.01"
         id="path354" />
      <path
         stroke="black"
         d="M85.9,260.3 L94.9,260.3  h0.01"
         id="path360" />
      <path
         stroke="black"
         d="M85.9,244.3 L94.9,244.3  h0.01"
         id="path366" />
      <path
         stroke="black"
         d="M85.9,228.3 L94.9,228.3  h0.01"
         id="path372" />
      <path
         stroke="black"
         d="M85.9,212.2 L94.9,212.2  h0.01"
         id="path378" />
      <path
         stroke="black"
         d="M85.9,196.1 L94.9,196.1  h0.01"
         id="path384" />
      <path
         stroke="black"
         d="M85.9,180.1 L94.9,180.1  h0.01"
         id="path390" />
      <path
         stroke="black"
         d="M85.9,164.0 L94.9,164.0  h0.01"
         id="path396" />
      <text
         xml:space="preserve"
         style="font-style:normal;font-variant:normal;font-weight:500;font-stretch:normal;font-size:24px;line-height:25px;font-family:Inconsolata;-inkscape-font-specification:'Inconsolata, Medium';font-variant-ligatures:normal;font-variant-caps:normal;font-variant-numeric:normal;text-align:start;letter-spacing:0px;word-spacing:0px;writing-mode:lr-tb;text-anchor:start;fill:#000000;fill-opacity:1;stroke:none;stroke-width:1px;stroke-linecap:butt;stroke-linejoin:miter;stroke-opacity:1"
         x="270.90619"
         y="86.995239"
         id="text4640"><tspan
           sodipodi:role="line"
           id="tspan4638"
           x="270.90619"
           y="86.995239"
           style="font-style:normal;font-variant:normal;font-weight:normal;font-stretch:normal;font-size:18.66666603px;font-family:sans-serif;-inkscape-font-specification:sans-serif">Agent movements:</tspan></text>
    </g>
    <g
       id="gnuplot_plot_1">
      <title
         id="title412">gnuplot_plot_1</title>
      <g
         style="fill:none; color:red; stroke:currentColor; stroke-width:1.00; stroke-linecap:butt; stroke-linejoin:miter"
         id="g420">
        <path
           d="m 463.6,81.1 c 14.06667,0 28.13333,0 42.2,0 m -107.9,117 -2.5,-2.6 12.8,-3 8.6,0.5 6.8,-13.6 -1.2,-11.3 -0.2,-2.1 -3.6,4.3 -3.8,-2.2 -8.4,5.6 7.9,-1.6 -6.3,-8.8 2.4,-8.2 3.3,7.7 -8,3.2 -4.7,9.8 4.9,-12.1 4.6,0.7 17.2,-1.2 0.4,-4.6 6.6,-1.1 2.4,-0.3 -8.7,5.1 14.1,-12 -5.4,12.3 -11.7,-3.9 -8.4,-7 1.7,2.5 -19.4,26 -19.5,16.5 -15,1.5 -14,10.9 -8.3,-6.3 -10.9,12.6 -0.4,6.6 -4.6,8.4 3.2,3.3 -2.4,11.9 -11.1,19.3 6.3,-6.9 -15.4,2.6 -14,-4.5 -11.8,16.1 -6.9,9.5 13.9,-14.4 -3.7,5.9 -14,12.3 -13.6,17.1 -3.3,-10.7 -0.2,5.9 0.8,-14.7 -0.7,-11.7 -6.6,13.8 6,-16.2 4.1,9.4 -12,1.5 -4.1,-10.8 10.6,-19.1 -13.4,11.8 -6.9,6.6 7.8,1.8 7.4,-17.3 -7.4,10.9 17.3,0.9 -4.7,-9.4 -16.8,2.7 -8.3,-3.8 -5.3,7.1 -3.3,5.1 -0.8,-1.6 -2.6,-8 -17,-5.8 13.3,3.6 -18,19.7 13.8,2.6 -6.3,8.8 11.9,-12.9 -10.3,-7.8 -1.5,-1.2 -0.2,-10.1 20.1,-25.2 5.9,-19.5 -0.2,11.5 15.4,-23.6 3.5,-1.2 -6,-15.6 v 10.6 l -11.9,-2.9 -6.3,2.4 -6.5,-8.1 7.4,-19.2 -0.3,-6.9 -2.8,10.4 1.7,2.7 -15.2,13.8 -12.2,-3.5 -21.5,25.3 3.1,6.6 5.2,-12.8 -16.2,11.2 h 0.01"
           id="path418"
           inkscape:connector-curvature="0"
           style="stroke:#ff0000"
           sodipodi:nodetypes="ccccccccccccccccccccccccccccccccccccccccccccccccccccccccccccccccccccccccccccccccccccccccccccccccccccccc" />
      </g>
    </g>
    <g
       style="fill:none; color:black; stroke:currentColor; stroke-width:1.00; stroke-linecap:butt; stroke-linejoin:miter"
       id="g437">
      <path
         stroke="black"
         d="M514.1,316.0 L357.3,412.4 M85.9,356.8 L357.3,412.4  h0.01"
         id="path423" />
      <g
         transform="translate(182.5,413.2)"
         style="stroke:none; fill:black; font-family:Arial; font-size:12.00pt; text-anchor:middle"
         id="g427">
        <text
           id="text425">X</text>
      </g>
      <g
         transform="translate(503.6,382.6)"
         style="stroke:none; fill:black; font-family:Arial; font-size:12.00pt; text-anchor:middle"
         id="g431">
        <text
           id="text429">Y</text>
      </g>
    </g>
  </g>
</svg>
